{"accessors" : [{"bufferView" : 0, "byteOffset" : 0, "componentType" : 5123, "count" : 4524, "type" : "SCALAR", "max" : [3977], "min" : [0]}, {"bufferView" : 1, "byteOffset" : 0, "componentType" : 5126, "count" : 3978, "type" : "VEC3", "max" : [568.2871704101562, 1453.4783935546875, 369.51806640625], "min" : [-662.0700073242188, 6.595767974853516, -368.4663391113281]}, {"bufferView" : 1, "byteOffset" : 12, "componentType" : 5126, "count" : 3978, "type" : "VEC2", "max" : [0.9887700080871582, -0.007813000120222569], "min" : [0.00291300006210804, -0.9914630055427551]}], "asset" : {"generator" : "Aspose.3D 20.12.2", "version" : "2.0"}, "buffers" : [{"uri" : "buffer.bin", "byteLength" : 99536}], "bufferViews" : [{"buffer" : 0, "byteOffset" : 0, "byteLength" : 9048, "target" : 34963}, {"buffer" : 0, "byteOffset" : 9052, "byteLength" : 90480, "byteStride" : 20, "target" : 34962}], "meshes" : [{"primitives" : [{"attributes" : {"POSITION" : 1, "TEXCOORD_0" : 2}, "indices" : 0, "mode" : 4}]}], "nodes" : [{"mesh" : 0, "name" : "grp1 grp1_2"}], "scene" : 0, "scenes" : [{"nodes" : [0]}]}